# xmcd CD database file
#
# Track frame offsets:
#	150
#	12527
#	24301
#	38158
#	49020
#	60902
#	73287
#	92054
#	104643
#	115523
#	132537
#	151422
#	163389
#	176486
#	194820
#	211712
#	223857
#
# Disc length: 3224 seconds
#
# Revision: 0
# Processed by: cddbd v1.5.1PL0 Copyright (c) Steve Scherf et al.
# Submitted via: CDex 1.51
#
DISCID=f90c9611
DTITLE=Johnny Cash - 16 Biggest Hits
DYEAR=1900
DGENRE=Country
TTITLE0=I Walk the Line
TTITLE1=I Still Miss Someone
TTITLE2=Don't Take Your Guns to Town
TTITLE3=In the Jailhouse Now
TTITLE4=Ring of Fire
TTITLE5=Understand Your Man
TTITLE6=The Ballard of Ira Hayes
TTITLE7=Folsom Prison Blues
TTITLE8=Daddy Sang Bass
TTITLE9=A Boy Named Sue
TTITLE10=Sundy Morning Coming Down
TTITLE11=Flesh and Blood
TTITLE12=Man In Black
TTITLE13=One Piece at a Time
TTITLE14=Ghost Riders in the Sky
TTITLE15=Jackson
TTITLE16=Hidden Shame
EXTD=
EXTT0=
EXTT1=
EXTT2=
EXTT3=
EXTT4=
EXTT5=
EXTT6=
EXTT7=
EXTT8=
EXTT9=
EXTT10=
EXTT11=
EXTT12=
EXTT13=
EXTT14=
EXTT15=
EXTT16=
PLAYORDER=
